<svg xmlns="http://www.w3.org/2000/svg" width="491" height="368" viewBox="0 0 491 368">
  <g id="Group_447" data-name="Group 447" transform="translate(-1019 -3574)">
    <g id="Group_445" data-name="Group 445" transform="translate(3379.461 2241.502)">
      <path id="Path_4678" data-name="Path 4678" d="M-2042.995,1575.195a73.253,73.253,0,0,1,53.034-22.629,73.948,73.948,0,0,1,12.3,1.03,73.151,73.151,0,0,0,8.135-33.632,73.466,73.466,0,0,0-73.467-73.466,73.466,73.466,0,0,0-73.466,73.466,73.149,73.149,0,0,0,8.135,33.632,73.947,73.947,0,0,1,12.3-1.03A73.252,73.252,0,0,1-2042.995,1575.195Z" transform="translate(-76.966)" fill="#82a4fb" stroke="#fff" stroke-miterlimit="10" stroke-width="2"/>
      <path id="Path_4679" data-name="Path 4679" d="M-1871.045,1709.023a73.548,73.548,0,0,1-53.034,38.8,73.151,73.151,0,0,1,8.135,33.632,73.217,73.217,0,0,1-20.433,50.837,73.253,73.253,0,0,0,53.034,22.629,73.466,73.466,0,0,0,73.466-73.466A73.482,73.482,0,0,0-1871.045,1709.023Z" transform="translate(-183.585 -155.427)" fill="#a8c1fc" stroke="#fff" stroke-miterlimit="10" stroke-width="2"/>
      <path id="Path_4680" data-name="Path 4680" d="M-1936.376,1729.127a73.645,73.645,0,0,1,12.3,17.205,73.549,73.549,0,0,0,53.034-38.8,73.964,73.964,0,0,0-12.3-1.03A73.252,73.252,0,0,0-1936.376,1729.127Z" transform="translate(-183.585 -153.932)" fill="#6688be" stroke="#fff" stroke-miterlimit="10" stroke-width="2"/>
      <path id="Path_4681" data-name="Path 4681" d="M-2132.258,1747.827a73.548,73.548,0,0,1-53.034-38.8,73.483,73.483,0,0,0-61.169,72.436,73.466,73.466,0,0,0,73.466,73.466,73.253,73.253,0,0,0,53.034-22.629,73.219,73.219,0,0,1-20.432-50.837A73.147,73.147,0,0,1-2132.258,1747.827Z" transform="translate(0 -155.427)" fill="#6ebbac" stroke="#fff" stroke-miterlimit="10" stroke-width="2"/>
      <path id="Path_4682" data-name="Path 4682" d="M-2043.485,1746.333a73.65,73.65,0,0,1,12.3-17.205,73.252,73.252,0,0,0-53.034-22.629,73.959,73.959,0,0,0-12.3,1.03A73.548,73.548,0,0,0-2043.485,1746.333Z" transform="translate(-88.773 -153.932)" fill="#6688be" stroke="#fff" stroke-miterlimit="10" stroke-width="2"/>
      <path id="Path_4683" data-name="Path 4683" d="M-1953.731,1804.143a73.961,73.961,0,0,1-12.3,1.03,73.963,73.963,0,0,1-12.3-1.03,73.145,73.145,0,0,0-8.135,33.631,73.218,73.218,0,0,0,20.432,50.837,73.217,73.217,0,0,0,20.433-50.837A73.149,73.149,0,0,0-1953.731,1804.143Z" transform="translate(-153.932 -211.743)" fill="#6688be" stroke="#fff" stroke-miterlimit="10" stroke-width="2"/>
      <path id="Path_4684" data-name="Path 4684" d="M-1966.519,1779.173a73.947,73.947,0,0,0,12.3,1.03,73.948,73.948,0,0,0,12.3-1.03,73.647,73.647,0,0,0-12.3-17.205A73.656,73.656,0,0,0-1966.519,1779.173Z" transform="translate(-165.739 -186.773)" fill="#eaa94b" stroke="#fff" stroke-miterlimit="10" stroke-width="2"/>
    </g>
    <text id="COLLABORATIVE_SOLUTION" data-name="COLLABORATIVE SOLUTION" transform="translate(1159 3591)" fill="#ffac41" font-size="16" font-family="Roboto-Regular, Roboto"><tspan x="0" y="0">COLLABORATIVE SOLUTION</tspan></text>
    <text id="Business_Perspective" data-name="Business
Perspective" transform="translate(1260 3636)" fill="#fff" font-size="16" font-family="Roboto-Regular, Roboto"><tspan x="-32.359" y="0">Business</tspan><tspan x="-41.699" y="24">Perspective</tspan></text>
    <text id="Development_Perspective" data-name="Development
Perspective" transform="translate(1416 3863)" fill="#fff" font-size="16" font-family="Roboto-Regular, Roboto"><tspan x="0" y="0">Development</tspan><tspan x="0" y="24">Perspective</tspan></text>
    <text id="Design_Perspective" data-name="Design
Perspective" transform="translate(1103 3863)" fill="#fff" font-size="16" font-family="Roboto-Regular, Roboto"><tspan x="-48.906" y="0">Design</tspan><tspan x="-83.398" y="24">Perspective</tspan></text>
    <text id="Valuable" transform="translate(1260 3758)" fill="#fff" font-size="16" font-family="Roboto-Regular, Roboto"><tspan x="-30.633" y="0">Valuable</tspan></text>
    <text id="Usable" transform="translate(1189 3875)" fill="#fff" font-size="16" font-family="Roboto-Regular, Roboto"><tspan x="-24.332" y="0">Usable</tspan></text>
    <text id="Feasible" transform="translate(1332 3875)" fill="#fff" font-size="16" font-family="Roboto-Regular, Roboto"><tspan x="-29.746" y="0">Feasible</tspan></text>
  </g>
</svg>
