<svg xmlns="http://www.w3.org/2000/svg" width="126.602" height="63.934" viewBox="0 0 126.602 63.934">
  <g id="Group_603" data-name="Group 603" transform="translate(-321.529 674.583)">
    <path id="Path_4921" data-name="Path 4921" d="M384.828-610.65c5.9-10.282,20.871-12.841,34.2-16.06,12.751-3.077,29.108-8.086,29.108-20.825,0-20.315-40.091-26.927-63.3-27.047s-63.3,6.732-63.3,27.047c0,12.74,16.356,17.749,29.106,20.825,13.324,3.218,28.292,5.778,34.193,16.06Z" fill="#cc2229" fill-rule="evenodd"/>
    <path id="Path_4922" data-name="Path 4922" d="M425.808-640.154h4.969v-14.588h-4.969Zm4.969-15.717v-1.947h-4.969v1.949Zm-86.741,15.718v-11.014l5.553,11.014h3.65l5.234-11.292v11.292h4.881v-16.712h-7.07l-4.853,10.339-5.25-10.339h-7.027v16.712Zm49.924-3.619c-7.554,0-8.744-2.273-8.744-5.563,0-3.652.995-5.9,8.418-5.9,3.7,0,5.323,1.418,5.323,1.418v-.923H403.9v10.967c0,5.2-5,6.293-9.007,6.293-9.528,0-9.58-3.891-9.58-5.064v-.529h5.066a5.145,5.145,0,0,0,0,.529c.055,1.727,2.272,2.26,4.367,2.26,4.2,0,4.247-2.445,4.247-3.028v-1.478A10.426,10.426,0,0,1,393.96-643.772Zm.514-2.823c2.787,0,4.53-.4,4.53-2.662,0-1.7-.813-3.017-4.661-3.017-2.674,0-4,.506-4,2.9s1.822,2.781,4.129,2.781Zm19.542,2.823c-7.551,0-8.744-2.273-8.744-5.563,0-3.652,1-5.9,8.419-5.9,3.7,0,5.323,1.418,5.323,1.418v-.923h4.941v10.967c0,5.2-5,6.293-9.008,6.293-9.527,0-9.577-3.891-9.577-5.064v-.529h5.065s-.013.236,0,.529c.056,1.727,2.271,2.26,4.368,2.26,4.2,0,4.248-2.445,4.248-3.028v-1.478a10.428,10.428,0,0,1-5.035,1.02Zm.513-2.823c2.788,0,4.532-.4,4.532-2.662,0-1.7-.816-3.017-4.662-3.017-2.675,0-4,.506-4,2.9S412.222-646.595,414.529-646.595Zm-40.7-3.433a11.388,11.388,0,0,1,5.065.919v-.85c0-.615-.208-2.532-4.889-2.532-1.727,0-3.144.373-3.644,1.44a2.956,2.956,0,0,0-.146.459h-5.036v-.459c0-4.486,8.834-4.168,9.615-4.168,4.886,0,9.168,1.206,9.168,5.9l0,9.167h-5.066v-.881a13.087,13.087,0,0,1-6.05,1.218c-2.33,0-8.016-.371-8.016-5.033,0-.921-.355-5.18,9-5.18Zm.676,2.814c-2.306,0-4.307.242-4.307,2.2,0,1.245.826,2.329,3.839,2.329,3.12,0,4.871-.314,4.871-2.379,0-1.992-2.1-2.153-4.4-2.153Z" fill="#fde62f" fill-rule="evenodd"/>
    <path id="Path_4923" data-name="Path 4923" d="M444.211-630.376a1.938,1.938,0,0,1-1.954-1.921v-.027a1.936,1.936,0,0,1,1.923-1.947h.03a1.938,1.938,0,0,1,1.954,1.921v.026a1.937,1.937,0,0,1-1.925,1.948h-.028v-.317a1.63,1.63,0,0,0,1.634-1.626v-.005a1.627,1.627,0,0,0-1.623-1.632h-.012a1.628,1.628,0,0,0-1.637,1.619v.013a1.633,1.633,0,0,0,1.638,1.631Z" fill="#cc2229" fill-rule="evenodd"/>
    <path id="Path_4924" data-name="Path 4924" d="M443.794-631.212h-.338v-2.193h.859c.505,0,.766.129.766.581a.513.513,0,0,1-.563.567l.583,1.044h-.381l-.541-1.014H443.8v-.315l.521,0c.246,0,.431-.027.431-.279,0-.219-.129-.263-.43-.263H443.8v1.875Z" fill="#cc2229" fill-rule="evenodd"/>
  </g>
</svg>
